# xmcd
#
# Track frame offsets:
#	150
#	5846
#	18676
#	30744
#	36797
#	53833
#	68060
#	87354
#	97640
#	101499
#	117103
#	130594
#	141612
#	158702
#	162131
#	177049
#	192489
#	202040
#	225474
#	237714
#	243223
#	258879
#	275099
#	297150
#
# Disc length: 4308 seconds
#
# Revision: 1
# Processed by: cddbd v1.5.2PL0 Copyright (c) Steve Scherf et al.
# Submitted via: audiograbber 1.83.01
#
DISCID=4d10d218
DTITLE=Mok - Bad Boys 2 [CD 1)
DYEAR=2006
DGENRE=Hip-Hop
TTITLE0=Mok - Intro
TTITLE1=Mok, Killa Hakan - Kankan
TTITLE2=Mok, Alpa Gun - Clik Bang
TTITLE3=Mok - Rapskit
TTITLE4=Mok, Automatikk - Asphalt
TTITLE5=Mok,  B-Tight - Mir egal
TTITLE6=Mok, Six Eastwood - Deine Crew behauptet
TTITLE7=Mok, Massiv, Shizoe - Pass auf
TTITLE8=Six Eastwood - Rapskit
TTITLE9=Mok, B-Tight - Scheiss auf dich
TTITLE10=Mok, Flavor Tavor - Hamburg Berlin
TTITLE11=Kaisa - Einfach Boese
TTITLE12=Mok, Keskin - Game Over
TTITLE13=Mok - Rap Skit
TTITLE14=Mok, MC Bogy, Problemkind, Nelly - Ghettomuzik
TTITLE15=Mok - Du Opfer
TTITLE16=Mok, Koeppen - Badboys
TTITLE17=Mok, Massiv, VS Mafia, MC Basstard, B-Tight, Tony D - Jeder gegen Jede
TTITLE17=n
TTITLE18=Mok, Killa B - Fassa Fisso
TTITLE19=Mok - Flow
TTITLE20=Mok - Big Boss Junge
TTITLE21=Mok, Robird Styles - Zwei Seiten
TTITLE22=Mok, Lady Scar, Emely, Lil Sun - Ghettostarz
TTITLE23=Mok, BK, Kalusha, Assos - Ganz allein
EXTD=
EXTT0=
EXTT1=
EXTT2=
EXTT3=
EXTT4=
EXTT5=
EXTT6=
EXTT7=
EXTT8=
EXTT9=
EXTT10=
EXTT11=
EXTT12=
EXTT13=
EXTT14=
EXTT15=
EXTT16=
EXTT17=
EXTT18=
EXTT19=
EXTT20=
EXTT21=
EXTT22=
EXTT23=
PLAYORDER=
